/* XPM */
static char * stick_prelight = {
"18 14 4 1", 
"@	c #b1b1b1 s active_shadow_1", 
"+	c #FFFFFF", 
"=	c #000000 s active_color_1", 
".	c None", 
"..................", 
"..................", 
"==================", 
"=======@@@@=======", 
"======@++++@======", 
"=====@++++++@=====", 
"====@++@@@@++@====", 
"====@++@==@++@====", 
"====@++@==@++@====", 
"====@++@@@@++@====", 
"=====@++++++@=====", 
"======@++++@======", 
"=======@@@@=======", 
"==================", 
};