/* XPM */
static char * title_2_active = {
"11 14 2 1", 
"+	c #000000 s active_shadow_1", 
"%	c #000000 s active_color_1", 
"+++++++++++", 
"%%%%%%%%%%%", 
"%%%%%%%%%%%", 
"%%%%%%%%%%%", 
"%%%%%%%%%%%", 
"%%%%%%%%%%%", 
"%%%%%%%%%%%", 
"%%%%%%%%%%%", 
"%%%%%%%%%%%", 
"%%%%%%%%%%%", 
"%%%%%%%%%%%", 
"%%%%%%%%%%%", 
"%%%%%%%%%%%", 
"%%%%%%%%%%%", 
};