/* XPM */
static char * title_3_inactive = {
"11 13 4 1", 
"=	c #000000 s inactive_color_2", 
"+	c #000000 s inactive_shadow_2", 
"%	c #000000 s inactive_mid_2", 
"#	c #000000 s inactive_color_2", 
"+++++++++++", 
"%%%%%%%%%%%", 
"###########", 
"#=========#", 
"#=========#", 
"#=========#", 
"#=========#", 
"#=========#", 
"#=========#", 
"#=========#", 
"#=========#", 
"#=========#", 
"#=========#", 
};