/* XPM */
static char * top_right_active = {
"2 13 3 1", 
"+	c #000000 s active_shadow_1", 
"%	c #000000 s active_color_1", 
".	c None", 
"..", 
"+.", 
"%+", 
"%+", 
"%+", 
"%+", 
"%+", 
"%+", 
"%+", 
"%+", 
"%+", 
"%+", 
"%+", 
};