/* XPM */
static char * bottom_left_inactive = {
"2 3 3 1", 
"+	c #000000", 
"%	c #000000 s active_color_2", 
".	c None", 
"+%", 
"+%", 
".+", 
};