/* XPM */
static char * bottom_inactive = {
"9 3 2 1", 
"+	c #000000", 
"%	c #000000 s active_color_2", 
"%%%%%%%%%", 
"%%%%%%%%%", 
"+++++++++", 
};