/* XPM */
static char * stick_toggled_active = {
"18 14 4 1", 
"@	c #3C3C3C", 
"+	c #E6E6E6", 
"=	c #3C3C3C", 
".	c None", 
"..................", 
"..................", 
"==================", 
"=======@@@@=======", 
"======@++++@======", 
"=====@++++++@=====", 
"====@++@@@@++@====", 
"====@++@++@++@====", 
"====@++@++@++@====", 
"====@++@@@@++@====", 
"=====@++++++@=====", 
"======@++++@======", 
"=======@@@@=======", 
"==================", 
};