/* XPM */
static char * title_5_active = {
"11 14 2 1", 
"+	c #000000", 
"%	c #3C3C3C", 
"+++++++++++", 
"%%%%%%%%%%%", 
"%%%%%%%%%%%", 
"%%%%%%%%%%%", 
"%%%%%%%%%%%", 
"%%%%%%%%%%%", 
"%%%%%%%%%%%", 
"%%%%%%%%%%%", 
"%%%%%%%%%%%", 
"%%%%%%%%%%%", 
"%%%%%%%%%%%", 
"%%%%%%%%%%%", 
"%%%%%%%%%%%", 
"%%%%%%%%%%%", 
};