/* XPM */
static char * title_5_inactive = {
"9 14 2 1", 
"+	c #000000", 
"%	c #000000 s active_color_2", 
"+++++++++", 
"%%%%%%%%%", 
"%%%%%%%%%", 
"%%%%%%%%%", 
"%%%%%%%%%", 
"%%%%%%%%%", 
"%%%%%%%%%", 
"%%%%%%%%%", 
"%%%%%%%%%", 
"%%%%%%%%%", 
"%%%%%%%%%", 
"%%%%%%%%%", 
"%%%%%%%%%", 
"%%%%%%%%%", 
};