/* XPM */
static char * title_2_active = {
"11 13 2 1", 
"+	c #000000", 
"%	c #3C3C3C", 
"+++++++++++", 
"%%%%%%%%%%%", 
"%%%%%%%%%%%", 
"%%%%%%%%%%%", 
"%%%%%%%%%%%", 
"%%%%%%%%%%%", 
"%%%%%%%%%%%", 
"%%%%%%%%%%%", 
"%%%%%%%%%%%", 
"%%%%%%%%%%%", 
"%%%%%%%%%%%", 
"%%%%%%%%%%%", 
"%%%%%%%%%%%", 
};