/* XPM */
static char * top_right_inactive = {
"4 13 5 1", 
"=	c #000000 s inactive_color_2", 
"+	c #000000 s inactive_shadow_2", 
"%	c #000000 s inactive_mid_2", 
"#	c #000000 s inactive_color_2", 
".	c None", 
"....", 
"++..", 
"%%+.", 
"#%+.", 
"=#%+", 
"=#%+", 
"=#%+", 
"=#%+", 
"=#%+", 
"=#%+", 
"=#%+", 
"=#%+", 
"=#%+", 
};